<?xml version="1.0" encoding="UTF-8" standalone="no"?>
<svg
   data-name="Layer 1"
   width="578"
   height="578"
   viewBox="0 0 578 578"
   version="1.1"
   id="svg503"
   sodipodi:docname="avater.svg"
   inkscape:version="1.1.2 (b8e25be8, 2022-02-05)"
   xmlns:inkscape="http://www.inkscape.org/namespaces/inkscape"
   xmlns:sodipodi="http://sodipodi.sourceforge.net/DTD/sodipodi-0.dtd"
   xmlns:xlink="http://www.w3.org/1999/xlink"
   xmlns="http://www.w3.org/2000/svg"
   xmlns:svg="http://www.w3.org/2000/svg">
  <defs
     id="defs507">
    <linearGradient
       id="linearGradient1347"
       inkscape:swatch="solid">
      <stop
         style="stop-color:#000000;stop-opacity:1;"
         offset="0"
         id="stop1345" />
    </linearGradient>
    <linearGradient
       id="linearGradient1319"
       inkscape:swatch="solid">
      <stop
         style="stop-color:#800000;stop-opacity:1;"
         offset="0"
         id="stop1317" />
    </linearGradient>
    <linearGradient
       id="linearGradient1291"
       inkscape:swatch="solid">
      <stop
         style="stop-color:#ffffff;stop-opacity:1;"
         offset="0"
         id="stop1289" />
    </linearGradient>
    <linearGradient
       id="linearGradient1263"
       inkscape:swatch="solid">
      <stop
         style="stop-color:#280b0b;stop-opacity:1;"
         offset="0"
         id="stop1261" />
    </linearGradient>
    <linearGradient
       id="linearGradient1235"
       inkscape:swatch="solid">
      <stop
         style="stop-color:#ffffff;stop-opacity:1;"
         offset="0"
         id="stop1233" />
    </linearGradient>
    <linearGradient
       inkscape:collect="always"
       xlink:href="#linearGradient1347"
       id="linearGradient1349"
       x1="106.51984"
       y1="291.24411"
       x2="451.69806"
       y2="291.24411"
       gradientUnits="userSpaceOnUse"
       gradientTransform="matrix(1.3153944,0,0,1.2855701,-82.254423,-102.68478)" />
  </defs>
  <sodipodi:namedview
     id="namedview505"
     pagecolor="#ffffff"
     bordercolor="#666666"
     borderopacity="1.0"
     inkscape:pageshadow="2"
     inkscape:pageopacity="0.0"
     inkscape:pagecheckerboard="0"
     showgrid="false"
     inkscape:zoom="0.94648176"
     inkscape:cx="393.56279"
     inkscape:cy="267.30573"
     inkscape:window-width="1512"
     inkscape:window-height="838"
     inkscape:window-x="0"
     inkscape:window-y="38"
     inkscape:window-maximized="0"
     inkscape:current-layer="svg503" />
  <ellipse
     style="fill:#f9f9f9;fill-opacity:1;stroke:url(#linearGradient1349);stroke-width:1.30039"
     id="path1209"
     cx="284.88394"
     cy="271.72998"
     rx="227.02275"
     ry="232.2758" />
  <path
     d="M 458.42034,350.94649 H 111.47993 a 23.778952,26.82 0 0 0 0,53.64 h 346.94041 a 23.726102,26.76039 0 0 0 17.83865,-9.11 24.023657,27.096 0 0 0 2.67756,-4.18 22.644488,25.54045 0 0 0 1.55159,-3.56 23.764137,26.80329 0 0 0 -22.0678,-36.79 z"
     fill="#cccccc"
     id="path307"
     style="stroke-width:0.9416" />
  <path
     d="m 480.81619,390.07649 c -7.70223,10.29349 -12.70516,20.66768 -21.60366,29.65061 l -348.51592,0.3503 c -8.89849,-8.98292 -13.901427,-19.70742 -21.603657,-30.00091 z"
     fill="#3f3d56"
     id="path313"
     style="stroke-width:0.9416"
     sodipodi:nodetypes="ccccc" />
  <path
     d="m 318.46529,289.80649 h -64.92 a 3.17486,3.17486 0 0 0 -1.03,0.16 3.448,3.448 0 0 0 -2.43,3.3 v 102.56 h 71.85 v -102.56 a 3.46328,3.46328 0 0 0 -3.47,-3.46 z m -24.57,50.6 a 7.53127,7.53127 0 0 1 -1.56,4.6 7.665,7.665 0 0 1 -13.78,-4.6 v -11.9 a 7.67033,7.67033 0 0 1 15.34,0 z"
     fill="#2f2e41"
     id="path315" />
  <path
     d="m 252.7528,392.54649 v 9.89 a 1.7197715,1.93971 0 0 0 1.71116,1.94 h 60.67092 a 1.7255434,1.94622 0 0 0 1.71115,-1.94 v -9.89 z"
     fill="#3f3d56"
     id="path317"
     style="stroke-width:0.9416" />
  <path
     d="m 425.96529,129.75649 h -277.5 a 9.01147,9.01147 0 0 0 -9,8.99 v 187.26 a 9.0071,9.0071 0 0 0 9,9 h 277.5 a 9.00714,9.00714 0 0 0 9,-9 v -187.26 a 9.01151,9.01151 0 0 0 -9,-8.99 z"
     fill="#3f3d56"
     id="path319" />
  <path
     d="m 423.64529,136.25649 h -272.87 a 4.82046,4.82046 0 0 0 -4.81,4.82 v 182.62 a 4.81829,4.81829 0 0 0 4.81,4.81 h 272.87 a 4.81833,4.81833 0 0 0 4.81,-4.81 v -182.62 a 4.8205,4.8205 0 0 0 -4.81,-4.82 z"
     fill="#6c63ff"
     id="path321"
     style="fill:#5ac4a9;fill-opacity:1" />
  <path
     d="m 362.30266,404.21649 -2.23425,-11.97 a 2.653082,2.99238 0 0 0 -1.64912,-2.17 2.566132,2.89431 0 0 0 -0.93979,-0.2 H 218.00645 a 2.5663447,2.89455 0 0 0 -0.93981,0.2 2.6532949,2.99262 0 0 0 -1.6491,2.17 l -2.23427,11.97 a 2.6485249,2.98724 0 0 0 2.58892,3.6 H 359.7049 a 2.61408,2.94839 0 0 0 2.05692,-1.11 2.6464857,2.98494 0 0 0 0.54084,-2.49 z"
     fill="#2f2e41"
     id="path323"
     style="stroke-width:0.9416" />
  <rect
     x="219.02873"
     y="392.03226"
     width="4.4330635"
     height="3"
     rx="0.43283543"
     fill="#3f3d56"
     id="rect325"
     style="stroke-width:0.9416" />
  <rect
     x="227.89484"
     y="392.03226"
     width="4.4330635"
     height="3"
     rx="0.43283543"
     fill="#3f3d56"
     id="rect327"
     style="stroke-width:0.9416" />
  <rect
     x="236.76097"
     y="392.03226"
     width="4.4330635"
     height="3"
     rx="0.43283543"
     fill="#3f3d56"
     id="rect329"
     style="stroke-width:0.9416" />
  <rect
     x="245.62709"
     y="392.03226"
     width="4.4330635"
     height="3"
     rx="0.43283543"
     fill="#3f3d56"
     id="rect331"
     style="stroke-width:0.9416" />
  <rect
     x="254.49326"
     y="392.03226"
     width="4.4330635"
     height="3"
     rx="0.43283543"
     fill="#3f3d56"
     id="rect333"
     style="stroke-width:0.9416" />
  <rect
     x="263.35934"
     y="392.03226"
     width="4.4330635"
     height="3"
     rx="0.43283543"
     fill="#3f3d56"
     id="rect335"
     style="stroke-width:0.9416" />
  <rect
     x="272.22543"
     y="392.03226"
     width="4.4330635"
     height="3"
     rx="0.43283543"
     fill="#3f3d56"
     id="rect337"
     style="stroke-width:0.9416" />
  <rect
     x="281.09158"
     y="392.03226"
     width="4.4330635"
     height="3"
     rx="0.43283543"
     fill="#3f3d56"
     id="rect339"
     style="stroke-width:0.9416" />
  <rect
     x="289.95773"
     y="392.03226"
     width="4.4330635"
     height="3"
     rx="0.43283543"
     fill="#3f3d56"
     id="rect341"
     style="stroke-width:0.9416" />
  <rect
     x="298.82382"
     y="392.03226"
     width="4.4330635"
     height="3"
     rx="0.43283543"
     fill="#3f3d56"
     id="rect343"
     style="stroke-width:0.9416" />
  <rect
     x="307.68997"
     y="392.03226"
     width="4.4330635"
     height="3"
     rx="0.43283543"
     fill="#3f3d56"
     id="rect345"
     style="stroke-width:0.9416" />
  <rect
     x="316.55612"
     y="392.03226"
     width="4.4330635"
     height="3"
     rx="0.43283543"
     fill="#3f3d56"
     id="rect347"
     style="stroke-width:0.9416" />
  <rect
     x="325.42224"
     y="392.03226"
     width="4.4330635"
     height="3"
     rx="0.43283543"
     fill="#3f3d56"
     id="rect349"
     style="stroke-width:0.9416" />
  <rect
     x="334.28833"
     y="392.03226"
     width="4.4330635"
     height="3"
     rx="0.43283543"
     fill="#3f3d56"
     id="rect351"
     style="stroke-width:0.9416" />
  <rect
     x="343.15445"
     y="392.03226"
     width="4.4330635"
     height="3"
     rx="0.43283543"
     fill="#3f3d56"
     id="rect353"
     style="stroke-width:0.9416" />
  <rect
     x="352.02063"
     y="392.03226"
     width="4.4330635"
     height="3"
     rx="0.43283543"
     fill="#3f3d56"
     id="rect355"
     style="stroke-width:0.9416" />
  <rect
     x="218.92395"
     y="397.03226"
     width="4.4330635"
     height="3"
     rx="0.43283543"
     fill="#3f3d56"
     id="rect357"
     style="stroke-width:0.9416" />
  <rect
     x="227.79008"
     y="397.03226"
     width="4.4330635"
     height="3"
     rx="0.43283543"
     fill="#3f3d56"
     id="rect359"
     style="stroke-width:0.9416" />
  <rect
     x="236.6562"
     y="397.03226"
     width="4.4330635"
     height="3"
     rx="0.43283543"
     fill="#3f3d56"
     id="rect361"
     style="stroke-width:0.9416" />
  <rect
     x="245.52234"
     y="397.03226"
     width="4.4330635"
     height="3"
     rx="0.43283543"
     fill="#3f3d56"
     id="rect363"
     style="stroke-width:0.9416" />
  <rect
     x="254.38847"
     y="397.03226"
     width="4.4330635"
     height="3"
     rx="0.43283543"
     fill="#3f3d56"
     id="rect365"
     style="stroke-width:0.9416" />
  <rect
     x="263.25458"
     y="397.03226"
     width="4.4330635"
     height="3"
     rx="0.43283543"
     fill="#3f3d56"
     id="rect367"
     style="stroke-width:0.9416" />
  <rect
     x="272.1207"
     y="397.03226"
     width="4.4330635"
     height="3"
     rx="0.43283543"
     fill="#3f3d56"
     id="rect369"
     style="stroke-width:0.9416" />
  <rect
     x="280.98685"
     y="397.03226"
     width="4.4330635"
     height="3"
     rx="0.43283543"
     fill="#3f3d56"
     id="rect371"
     style="stroke-width:0.9416" />
  <rect
     x="289.85294"
     y="397.03226"
     width="4.4330635"
     height="3"
     rx="0.43283543"
     fill="#3f3d56"
     id="rect373"
     style="stroke-width:0.9416" />
  <rect
     x="298.71909"
     y="397.03226"
     width="4.4330635"
     height="3"
     rx="0.43283543"
     fill="#3f3d56"
     id="rect375"
     style="stroke-width:0.9416" />
  <rect
     x="307.58517"
     y="397.03226"
     width="4.4330635"
     height="3"
     rx="0.43283543"
     fill="#3f3d56"
     id="rect377"
     style="stroke-width:0.9416" />
  <rect
     x="316.45132"
     y="397.03226"
     width="4.4330635"
     height="3"
     rx="0.43283543"
     fill="#3f3d56"
     id="rect379"
     style="stroke-width:0.9416" />
  <rect
     x="325.31747"
     y="397.03226"
     width="4.4330635"
     height="3"
     rx="0.43283543"
     fill="#3f3d56"
     id="rect381"
     style="stroke-width:0.9416" />
  <rect
     x="334.18356"
     y="397.03226"
     width="4.4330635"
     height="3"
     rx="0.43283543"
     fill="#3f3d56"
     id="rect383"
     style="stroke-width:0.9416" />
  <rect
     x="343.04974"
     y="397.03226"
     width="4.4330635"
     height="3"
     rx="0.43283543"
     fill="#3f3d56"
     id="rect385"
     style="stroke-width:0.9416" />
  <rect
     x="351.91583"
     y="397.03226"
     width="4.4330635"
     height="3"
     rx="0.43283543"
     fill="#3f3d56"
     id="rect387"
     style="stroke-width:0.9416" />
  <rect
     x="261.48135"
     y="403.03226"
     width="35.464508"
     height="3"
     rx="0.43283543"
     fill="#3f3d56"
     id="rect389"
     style="stroke-width:0.9416" />
  <path
     d="M 409.93342,161.41318 H 154.61006 a 1.01559,1.01559 0 0 1 0,-2.03069 h 255.32336 a 1.01559,1.01559 0 0 1 0,2.03069 z"
     fill="#3f3d56"
     id="path391" />
  <ellipse
     cx="171.99025"
     cy="148.1153"
     rx="5.9504299"
     ry="6.0830402"
     fill="#3f3d56"
     id="ellipse393" />
  <ellipse
     cx="192.54626"
     cy="148.1153"
     rx="5.9504299"
     ry="6.0830402"
     fill="#3f3d56"
     id="ellipse395" />
  <ellipse
     cx="213.10229"
     cy="148.1153"
     rx="5.9504299"
     ry="6.0830402"
     fill="#3f3d56"
     id="ellipse397" />
  <path
     d="m 397.55529,143.53649 h -14.6 a 1.1053,1.1053 0 0 0 0,2.21 h 14.6 a 1.10511,1.10511 0 0 0 0,-2.21 z"
     fill="#3f3d56"
     id="path399" />
  <path
     d="m 397.55529,147.68649 h -14.6 a 1.10527,1.10527 0 0 0 0,2.21 h 14.6 a 1.10508,1.10508 0 0 0 0,-2.21 z"
     fill="#3f3d56"
     id="path401" />
  <path
     d="m 397.55529,151.83649 h -14.6 a 1.1053,1.1053 0 0 0 0,2.21 h 14.6 a 1.10511,1.10511 0 0 0 0,-2.21 z"
     fill="#3f3d56"
     id="path403" />
  <rect
     x="168.4994"
     y="185.00978"
     width="11.00609"
     height="5.7599201"
     rx="2.8799601"
     fill="#e6e6e6"
     id="rect405" />
  <rect
     x="228.4994"
     y="185.00978"
     width="11.00609"
     height="5.7599201"
     rx="2.8799601"
     fill="#e6e6e6"
     id="rect407" />
  <rect
     x="245.49942"
     y="185.00978"
     width="11.00609"
     height="5.7599201"
     rx="2.8799601"
     fill="#e6e6e6"
     id="rect409" />
  <rect
     x="184.81958"
     y="184.52962"
     width="38.3657"
     height="5.7599201"
     rx="2.8799601"
     fill="#e6e6e6"
     id="rect411" />
  <rect
     x="264.81958"
     y="184.52962"
     width="38.3657"
     height="5.7599201"
     rx="2.8799601"
     fill="#e6e6e6"
     id="rect413" />
  <rect
     x="184.4994"
     y="198.00978"
     width="11.00609"
     height="5.7599201"
     rx="2.8799601"
     fill="#e6e6e6"
     id="rect415" />
  <rect
     x="244.49942"
     y="198.00978"
     width="11.00609"
     height="5.7599201"
     rx="2.8799601"
     fill="#e6e6e6"
     id="rect417" />
  <rect
     x="261.49939"
     y="198.00978"
     width="11.00609"
     height="5.7599201"
     rx="2.8799601"
     fill="#e6e6e6"
     id="rect419" />
  <rect
     x="200.81958"
     y="197.52962"
     width="38.3657"
     height="5.7599201"
     rx="2.8799601"
     fill="#e6e6e6"
     id="rect421" />
  <rect
     x="280.81958"
     y="197.52962"
     width="38.3657"
     height="5.7599201"
     rx="2.8799601"
     fill="#e6e6e6"
     id="rect423" />
  <rect
     x="200.4994"
     y="211.00978"
     width="11.00609"
     height="5.7599201"
     rx="2.8799601"
     fill="#e6e6e6"
     id="rect425" />
  <rect
     x="260.49939"
     y="211.00978"
     width="11.00609"
     height="5.7599201"
     rx="2.8799601"
     fill="#e6e6e6"
     id="rect427" />
  <rect
     x="277.49939"
     y="211.00978"
     width="11.00609"
     height="5.7599201"
     rx="2.8799601"
     fill="#e6e6e6"
     id="rect429" />
  <rect
     x="216.81958"
     y="210.52962"
     width="38.3657"
     height="5.7599201"
     rx="2.8799601"
     fill="#e6e6e6"
     id="rect431" />
  <rect
     x="296.81958"
     y="210.52962"
     width="38.3657"
     height="5.7599201"
     rx="2.8799601"
     fill="#e6e6e6"
     id="rect433" />
  <rect
     x="216.4994"
     y="224.00978"
     width="11.00609"
     height="5.7599201"
     rx="2.8799601"
     fill="#e6e6e6"
     id="rect435" />
  <rect
     x="276.49939"
     y="224.00978"
     width="11.00609"
     height="5.7599201"
     rx="2.8799601"
     fill="#e6e6e6"
     id="rect437" />
  <rect
     x="293.49939"
     y="224.00978"
     width="11.00609"
     height="5.7599201"
     rx="2.8799601"
     fill="#e6e6e6"
     id="rect439" />
  <rect
     x="232.81958"
     y="223.52962"
     width="38.3657"
     height="5.7599201"
     rx="2.8799601"
     fill="#e6e6e6"
     id="rect441" />
  <rect
     x="228.4994"
     y="275.70328"
     width="11.00609"
     height="5.7599201"
     rx="2.8799601"
     fill="#e6e6e6"
     id="rect443" />
  <rect
     x="245.49942"
     y="275.70328"
     width="11.00609"
     height="5.7599201"
     rx="2.8799601"
     fill="#e6e6e6"
     id="rect445" />
  <rect
     x="264.81958"
     y="276.18344"
     width="38.3657"
     height="5.7599201"
     rx="2.8799601"
     fill="#e6e6e6"
     id="rect447" />
  <rect
     x="168.4994"
     y="275.70328"
     width="11.00609"
     height="5.7599201"
     rx="2.8799601"
     fill="#e6e6e6"
     id="rect449" />
  <rect
     x="184.81958"
     y="276.18344"
     width="38.3657"
     height="5.7599201"
     rx="2.8799601"
     fill="#e6e6e6"
     id="rect451" />
  <rect
     x="184.4994"
     y="262.70328"
     width="11.00609"
     height="5.7599201"
     rx="2.8799601"
     fill="#e6e6e6"
     id="rect453" />
  <rect
     x="244.49942"
     y="262.70328"
     width="11.00609"
     height="5.7599201"
     rx="2.8799601"
     fill="#e6e6e6"
     id="rect455" />
  <rect
     x="261.49939"
     y="262.70328"
     width="11.00609"
     height="5.7599201"
     rx="2.8799601"
     fill="#e6e6e6"
     id="rect457" />
  <rect
     x="200.81958"
     y="263.18344"
     width="38.3657"
     height="5.7599201"
     rx="2.8799601"
     fill="#e6e6e6"
     id="rect459" />
  <rect
     x="200.4994"
     y="249.70329"
     width="11.00609"
     height="5.7599201"
     rx="2.8799601"
     fill="#e6e6e6"
     id="rect461" />
  <rect
     x="260.49939"
     y="249.70329"
     width="11.00609"
     height="5.7599201"
     rx="2.8799601"
     fill="#e6e6e6"
     id="rect463" />
  <rect
     x="277.49939"
     y="249.70329"
     width="11.00609"
     height="5.7599201"
     rx="2.8799601"
     fill="#e6e6e6"
     id="rect465" />
  <rect
     x="216.81958"
     y="250.18346"
     width="38.3657"
     height="5.7599201"
     rx="2.8799601"
     fill="#e6e6e6"
     id="rect467" />
  <rect
     x="216.4994"
     y="236.70329"
     width="11.00609"
     height="5.7599201"
     rx="2.8799601"
     fill="#e6e6e6"
     id="rect469" />
  <rect
     x="276.49939"
     y="236.70329"
     width="11.00609"
     height="5.7599201"
     rx="2.8799601"
     fill="#e6e6e6"
     id="rect471" />
  <rect
     x="293.49939"
     y="236.70329"
     width="11.00609"
     height="5.7599201"
     rx="2.8799601"
     fill="#e6e6e6"
     id="rect473" />
  <rect
     x="232.81958"
     y="237.18346"
     width="38.3657"
     height="5.7599201"
     rx="2.8799601"
     fill="#e6e6e6"
     id="rect475" />
  <path
     d="m 412.99529,463.50649 c -0.61,0.31 -1.23,0.62 -1.84,0.92 -15.8,7.9 -28.43994,12.39 -45.73,17.31 -1.46,-16.3 -2.87,-44.95 -4.24,-62.71 -0.36,-4.61 -0.72,-8.48 -1.07,-11.21 a 15.1823,15.1823 0 0 0 -0.88,-4.25 l 0.06,4.25 0.15,11.21 0.87,64.11 a 288.58782,288.58782 0 0 1 -65.84,9.49 c -1.16,0.03 -2.3,0.05 -3.4,0.07 -0.39,0.01 -0.77,0.02 -1.15,0.02 -1.25,0.01 -2.49,0.02 -3.74,0.02 a 289.27116,289.27116 0 0 1 -69.54,-8.43 c 0.49,-16.13 0.98,-44.46 1.45,-65.28 0.1,-4.07 0.19,-7.86 0.29,-11.21 0.19,-7.16 0.39,-12.32 0.58,-14.05 a 4.36108,4.36108 0 0 0 -0.39,0.97 97.15388,97.15388 0 0 0 -1.89,13.08 c -0.35,3.35 -0.7,7.14 -1.05,11.21 -1.86,21.63 -3.8,51.04 -5.8,63.51 a 285.47262,285.47262 0 0 1 -34.97,-12.03 q -9,-3.75 -17.68,-8.09 c 1.1,-7.2 2.25,-15.27 3.43,-23.64 0.92,-6.49 1.87,-13.16 2.84,-19.75 1.5,-10.18 3.04,-20.16 4.6,-28.95 2.28,-12.84 4.62,-23.16 6.94,-27.9 2.2,-4.5 4.4,-8.94 6.53,-13.19 0.74,-1.49 1.48,-2.96 2.2,-4.39 0.17,-0.34 0.34,-0.67 0.51,-1 1.53,-3.01 3.01,-5.89 4.42,-8.59 1.21,-2.31 2.36005,-4.49 3.45,-6.5 2.64,-4.88 4.88,-8.77 6.54,-11.23 a 55.25656,55.25656 0 0 1 29.28,-22.21 l 0.3,-0.08 0.21,0.09 20.45,-6.28 2.99,-0.92 2.01,-0.62 7.08,-5.39 3.85,-2.93 3.61,-2.75 7.06,-5.37 43.71,2.69 8.51,20.49 19.06,6.97 0.33,-0.15 0.29,-0.12 0.3,0.08 a 55.306,55.306 0 0 1 29.28,22.21 c 0.93994,1.41 2.08,3.27 3.37,5.52 1.1,1.91 2.3,4.09 3.6,6.5 1.85,3.43005 3.87,7.30005 6.01,11.49 0.47,0.92 0.95,1.86 1.43,2.81 q 1.335,2.63993 2.71,5.38995 c 2.13,4.25 4.33,8.69 6.53,13.2 1.91,3.91 3.84,11.95 5.74,22.18 1.57,8.5 3.13,18.52 4.64,28.95 1.98,13.52 -0.13,29.71 1.66,42.15 0.11,0.79005 0.23,1.56005 0.34,2.33005 z"
     fill="#3f3d56"
     id="path477" />
  <circle
     cx="286.80032"
     cy="203.62474"
     r="50.836449"
     fill="#a0616a"
     id="circle479" />
  <path
     d="m 370.63529,136.25649 a 26.60846,26.60846 0 0 0 -3.97,-6.5 c -7.72,-9.43 -21.76,-13.58 -36.17,-2.42 a 15.27875,15.27875 0 0 0 -8.35,0.48 12.91024,12.91024 0 0 0 -3.52,1.94 15.97041,15.97041 0 0 0 -4.94,6.5 15.52156,15.52156 0 0 0 -1.1,4.23 50.56537,50.56537 0 0 0 -11.23,-4.23 60.33992,60.33992 0 0 0 -29.13,0 36.54359,36.54359 0 0 0 -8.78,3.48 c -4.68,2.7 -7.37,6.11 -7.85,9.9 -6.75,0.38 -13.77,3.93 -19,9.75 -0.59,0.65 -1.16,1.33 -1.69,2.03 a 32.70853,32.70853 0 0 0 -6.72,20.05 v 1.27 h 1.27 a 26.87038,26.87038 0 0 1 10.15,1.98 27.58525,27.58525 0 0 1 5.89,3.25 28.764,28.764 0 0 1 3.37,2.8 33.48321,33.48321 0 0 1 6.12,8.05 37.4595,37.4595 0 0 1 4.08,24.71 36.19955,36.19955 0 0 1 -1.52,5.76 37.58443,37.58443 0 0 1 -3.71,7.63 c -0.06,0.09 -0.11,0.18 -0.17,0.27 -0.67,1.07 -1.31,2.16 -1.91,3.26 -0.45,0.82 -0.87,1.66 -1.26,2.5 a 51.95669,51.95669 0 0 0 -2.88,7.24 53.58646,53.58646 0 0 0 -2.44,13.54 c -0.07,1.22 -0.09,2.44 -0.05,3.66 a 51.97943,51.97943 0 0 0 1.03,9.36005 c 0.09,0.42 0.18005,0.83 0.27,1.25 l 0.73,3.19 1.73,7.61 1.2,5.24 1.11,4.86 1.64,-2.35 c 0.56,-0.8 1.97,-3.26 3.86,-6.74 1.25,-2.27 2.7,-4.98 4.27,-7.94 2.18994,-4.15 4.59,-8.78 6.93994,-13.4 0.95,-1.87 1.89,-3.73 2.80005,-5.55 1.72,-3.45 3.34,-6.78 4.73,-9.74 1.28,-2.73 2.37,-5.15 3.18,-7.09 0.25,1.27 0.46,2.56 0.62,3.86 0.18,1.32 0.31,2.66 0.38,4 0.02,0.2 0.03,0.41 0.04,0.61005 l 0.04,0.82 0.01,0.24 1.06,0.14 a 93.02194,93.02194 0 0 0 18.4,0.14 h 0.01 a 74.86185,74.86185 0 0 0 23.56,-5.71 49.25718,49.25718 0 0 0 11.8,-7.24 41.3,41.3 0 0 0 4.66,-4.52 c 0.36,-0.41 0.71,-0.82 1.05,-1.24 a 41.12455,41.12455 0 0 0 5.05,-7.9 41.80164,41.80164 0 0 0 2.34,-5.76 c 3.84,-11.63 3.62,-26.14 -0.66,-43.38 a 9.923,9.923 0 0 0 3.27,-1.26 c 3.14,-1.88995 5.32,-5.63995 6,-10.22 l 1.08,0.29 a 30.104,30.104 0 0 0 10.01,-7.54 24.11545,24.11545 0 0 0 1.54,-2.03 c 4.89001,-7.2001 4.93001,-15.8401 1.76001,-23.1301 z"
     fill="#2f2e41"
     id="path481" />
  <polygon
     points="206.32,475.296 214.817,442.504 222.32,470.8 "
     opacity="0.2"
     id="polygon483"
     transform="matrix(0.88661269,0,0,1,28.723498,-85.263511)" />
  <path
     d="m 429.61529,369.3116 c -3.04,45.49891 0.16,56.68111 -16.62,94.19489 -15.26742,8.11836 -31.45981,21.43829 -47.80952,26.49001 -1.7,0.52148 -3.88236,1.26798 -5.58903,1.76049 -21.5075,6.18234 -42.88235,11.55812 -65.12145,12.22617 -1.16,0.0326 -2.3,0.0543 -3.4,0.076 -0.39,0.0109 -0.77,0.0217 -1.15,0.0217 -1.25,0.0109 -2.9125,0.067 -4.1625,0.067 -23.4359,0.0188 -44.92014,-4.5375 -67.67307,-10.63943 -2.28,-0.60839 -6.36446,-2.77122 -8.51755,-3.0706 -11.90442,-3.53079 -23.67098,-10.21039 -34.46737,-15.86456 -6,-2.71603 -11.09148,-7.33479 -16.87815,-10.47814 -1.31,-0.71703 -3.33854,-1.43406 -4.62854,-2.17282 -6.63,-12.66756 -9.92097,-24.48014 -10.00097,-42.99259 4.59,-31.89704 275.87815,-77.12619 286.01815,-49.61826 z"
     fill="#2f2e41"
     id="path485"
     style="stroke-width:1.04231"
     sodipodi:nodetypes="scccccccccccccss" />
  <path
     d="m 412.11444,375.83866 c 0.13768,-2.59271 0.29157,-5.27093 0.47107,-8.05987 -8.99025,-25.32 -250.2287,19.51 -254.29825,48.87 0.0111,2.69184 0.11326,5.30414 0.28486,7.85456 9.85522,-28.97829 239.03498,-71.58632 253.54232,-48.66469 z"
     opacity="0.2"
     id="path487"
     style="stroke-width:0.9416" />
  <path
     d="m 160.28081,256.88811 a 6.36455,6.36455 0 0 0 -6.75274,-6.81562 5.8541,5.8541 0 0 0 -1.00507,0.12575 l -39.7621,8.98257 a 6.54762,6.54762 0 0 0 -4.20873,3.23509 8.18371,8.18371 0 0 0 -1.72738,0.25112 9.6613316,9.6613316 0 0 0 4.2714,18.84464 9.79394,9.79394 0 0 0 3.89453,-1.88439 l 13.474,37.9406 a 6.3285,6.3285 0 0 0 6.941,3.04646 l 25.84869,-5.84179 a 6.41623,6.41623 0 0 0 4.93088,-5.71623 z m -49.78137,21.92253 a 6.91049,6.91049 0 0 1 -3.0779,-13.47385 c 0.12556,-0.0314 0.25132,0 0.37688,-0.0314 a 6.50647,6.50647 0 0 0 0.84807,3.26634 l 4.93085,8.60569 a 6.50519,6.50519 0 0 1 -3.0779,1.63326 z"
     fill="#2f2e41"
     id="path489" />
  <path
     d="m 153.52807,250.07249 c 0.37688,5.02535 -8.22881,10.80427 -19.75539,13.09716 -10.58459,2.16714 -20.06959,0.65944 -22.73936,-3.29777 a 6.02524,6.02524 0 0 1 1.72758,-0.69107 l 39.7621,-8.98257 a 5.8541,5.8541 0 0 1 1.00507,-0.12575 z"
     fill="#3f3d56"
     id="path491" />
  <path
     d="m 126.02862,377.64173 22.33367,-11.16681 -18.6114,-50.25079 -4.90493,-25.342 A 19.16137,19.16137 0 0 0 93.563762,279.97482 v 0 a 19.16136,19.16136 0 0 0 -2.49251,26.51833 l 18.207198,22.75891 z"
     fill="#a0616a"
     id="path493" />
  <path
     d="m 148.36229,357.16922 -29.77821,14.889 22.59854,70.80908 a 30.9768,30.9768 0 0 0 22.33567,20.7164 v 0 a 30.97681,30.97681 0 0 0 33.73743,-14.197 l 59.92487,-102.71393 a 31.62026,31.62026 0 0 0 -10.19564,-42.982 v 0 a 31.62037,31.62037 0 0 0 -45.29613,12.76511 l -36.576,77.93632 z"
     fill="#3f3d56"
     id="path495" />
  <path
     d="m 139.15209,293.1779 a 0.49632,0.49632 0 0 1 -0.1626,-0.0274 l -6.50147,-2.23828 a 0.49923,0.49923 0 0 1 -0.20556,-0.81055 l 4.83545,-5.26464 a 0.49972,0.49972 0 1 1 0.73633,0.67578 l -4.31885,4.70215 5.77929,1.99023 a 0.49991,0.49991 0 0 1 -0.16259,0.97266 z"
     fill="#6c63ff"
     id="path497"
     style="fill:#5ac4a9;fill-opacity:1" />
  <path
     d="m 148.06371,291.35368 a 0.5,0.5 0 0 1 -0.34766,-0.85938 l 4.39453,-4.249 -5.90332,-2.43262 a 0.49963,0.49963 0 1 1 0.38086,-0.92383 l 6.60938,2.72364 a 0.49951,0.49951 0 0 1 0.15722,0.82129 l -4.94336,4.77929 a 0.49966,0.49966 0 0 1 -0.34765,0.14061 z"
     fill="#6c63ff"
     id="path499"
     style="fill:#5ac4a9;fill-opacity:1" />
  <path
     d="m 140.51683,296.23649 a 0.48228,0.48228 0 0 1 -0.147,-0.0225 0.49976,0.49976 0 0 1 -0.33105,-0.625 l 4.61474,-15 a 0.50026,0.50026 0 0 1 0.95606,0.29492 l -4.61475,15 a 0.50035,0.50035 0 0 1 -0.478,0.35254 z"
     fill="#6c63ff"
     id="path501"
     style="fill:#5ac4a9;fill-opacity:1" />
</svg>
